<svg xmlns="http://www.w3.org/2000/svg" width="240" height="240" viewBox="0 0 25 25" shape-rendering="crispEdges"><path fill="#f8e8d1" d="M0 0h25v25H0z"/><path stroke="#4d2b32" d="M0 0.5h7m1 0h1m1 0h1m1 0h2m4 0h7M0 1.5h1m5 0h1m2 0h5m4 0h1m5 0h1M0 2.5h1m1 0h3m1 0h1m1 0h3m2 0h4m1 0h1m1 0h3m1 0h1M0 3.5h1m1 0h3m1 0h1m1 0h3m1 0h4m2 0h1m1 0h3m1 0h1M0 4.5h1m1 0h3m1 0h1m1 0h1m2 0h6m1 0h1m1 0h3m1 0h1M0 5.5h1m5 0h1m3 0h2m2 0h1m3 0h1m5 0h1M0 6.5h7m1 0h1m1 0h1m1 0h1m1 0h1m1 0h1m1 0h7M10 7.5h1m1 0h1m3 0h1M0 8.5h4m2 0h1m1 0h1m1 0h2m2 0h1m2 0h1m2 0h3m1 0h1M2 9.5h4m4 0h1m1 0h1m1 0h1m1 0h1m2 0h1m3 0h1M0 10.5h1m1 0h1m1 0h1m1 0h1m1 0h5m1 0h1m2 0h1m2 0h1M0 11.5h1m4 0h1m3 0h2m1 0h2m3 0h1m1 0h4M0 12.5h4m1 0h6m1 0h3m2 0h2m1 0h1m1 0h3M4 13.5h2m3 0h1m2 0h1m1 0h7m3 0h1M1 14.5h4m1 0h2m4 0h3m5 0h1m1 0h2M0 15.5h1m1 0h1m1 0h2m5 0h2m1 0h1m2 0h1m1 0h2m3 0h1M3 16.5h1m1 0h2m1 0h4m1 0h1m2 0h9M8 17.5h1m1 0h3m3 0h1m3 0h1m1 0h1m1 0h1M0 18.5h7m3 0h1m2 0h2m1 0h1m1 0h1m1 0h1m1 0h3M0 19.5h1m5 0h1m4 0h2m1 0h3m3 0h1m3 0h1M0 20.5h1m1 0h3m1 0h1m2 0h1m2 0h1m1 0h1m1 0h6m2 0h1M0 21.5h1m1 0h3m1 0h1m1 0h4m2 0h5m1 0h5M0 22.5h1m1 0h3m1 0h1m1 0h11m1 0h1m1 0h2M0 23.5h1m5 0h1m1 0h1m4 0h2m3 0h1m1 0h1m1 0h1M0 24.5h7m1 0h1m3 0h4m1 0h1m1 0h6"/></svg>
